<svg xmlns="http://www.w3.org/2000/svg" version="1.1" xmlns:xlink="http://www.w3.org/1999/xlink" xmlns:svgjs="http://svgjs.dev/svgjs" width="1920" height="1080" preserveAspectRatio="none" viewBox="0 0 1920 1080"><g mask="url(&quot;#SvgjsMask1057&quot;)" fill="none"><rect width="1920" height="1080" x="0" y="0" fill="url(&quot;#SvgjsLinearGradient1058&quot;)"></rect><path d="M1920 0L1704.6 0L1920 274.05z" fill="rgba(255, 255, 255, .1)"></path><path d="M1704.6 0L1920 274.05L1920 562.6600000000001L1696.58 0z" fill="rgba(255, 255, 255, .075)"></path><path d="M1696.58 0L1920 562.6600000000001L1920 706.6600000000001L1603.78 0z" fill="rgba(255, 255, 255, .05)"></path><path d="M1603.78 0L1920 706.6600000000001L1920 842.6700000000001L515.8199999999999 0z" fill="rgba(255, 255, 255, .025)"></path><path d="M0 1080L215.67 1080L0 853.05z" fill="rgba(0, 0, 0, .1)"></path><path d="M0 853.05L215.67 1080L524.46 1080L0 465.9z" fill="rgba(0, 0, 0, .075)"></path><path d="M0 465.9000000000001L524.46 1080L833.9100000000001 1080L0 282.43000000000006z" fill="rgba(0, 0, 0, .05)"></path><path d="M0 282.43000000000006L833.9100000000001 1080L993.7900000000001 1080L0 207.64000000000004z" fill="rgba(0, 0, 0, .025)"></path></g><defs><mask id="SvgjsMask1057"><rect width="1920" height="1080" fill="#ffffff"></rect></mask><linearGradient x1="10.94%" y1="-19.44%" x2="89.06%" y2="119.44%" gradientUnits="userSpaceOnUse" id="SvgjsLinearGradient1058"><stop stop-color="#0e2a47" offset="0"></stop><stop stop-color="rgba(0, 100, 115, 1)" offset="1"></stop></linearGradient></defs></svg>